#!OML:ASF F:\VICON\USERDATA\INSTALL\rory3\rory3.ASF
:FULLY-SPECIFIED
:DEGREES
31
root -2.5664 16.538 42.8163 -165.17 -5.76026 -175.169
lowerback -12.7299 1.18258 4.18979
upperback -5.13601 0.354084 1.99679
thorax 1.7757 -0.134375 -0.240199
lowerneck -16.0163 -1.75536 -7.85044
upperneck 35.4875 -5.04302 4.46264
head 15.4442 -3.68897 2.07637
rclavicle 4.79879e-015 2.98177e-015
rhumerus -36.8531 11.749 -96.57
rradius 31.0267
rwrist 11.2261
rhand -21.2066 -48.1982
rfingers 7.12502
rthumb 5.17483 -78.115
lclavicle 4.79879e-015 2.98177e-015
lhumerus -36.5304 -12.7506 94.6521
lradius 32.4675
lwrist 6.82901
lhand -30.5458 -29.8355
lfingers 7.12502
lthumb -3.84449 0.10954
rfemur -32.5341 7.35619 26.4777
rtibia 41.6012
rfoot -19.8351 -17.0349
rtoes -3.74276
lfemur -32.1771 -10.3963 -14.6273
ltibia 43.3966
lfoot -24.9808 20.2288
ltoes 5.55484
32
root -2.56274 16.5408 42.8305 -164.827 -6.27677 -175.217
lowerback -12.9273 1.0231 4.11551
upperback -5.22347 0.126276 2.03077
thorax 1.78308 -0.254328 -0.194658
lowerneck -16.0781 -1.78515 -7.86575
upperneck 35.4442 -5.05245 4.45415
head 15.4393 -3.68748 2.07418
rclavicle -1.14767e-014 2.60408e-014
rhumerus -36.7666 11.8138 -96.6171
rradius 31.0732
rwrist 11.2363
rhand -21.4254 -48.4044
rfingers 7.12502
rthumb 4.9636 -78.3263
lclavicle -1.14767e-014 2.60408e-014
lhumerus -36.3716 -12.7332 94.6254
lradius 32.3899
lwrist 6.80711
lhand -30.8501 -29.8473
lfingers 7.12502
lthumb -4.13837 0.0922624
rfemur -32.9395 7.37759 26.4317
rtibia 41.6002
rfoot -19.981 -17.2951
rtoes -2.58472
lfemur -32.7292 -10.2692 -14.5311
ltibia 43.3921
lfoot -24.8136 19.7006
ltoes 5.35103
33
root -2.56821 16.5392 42.8185 -165.004 -5.97925 -175.044
lowerback -12.9171 1.14365 4.30082
upperback -5.14392 0.266218 2.05028
thorax 1.86593 -0.181799 -0.258387
lowerneck -16.073 -1.77847 -7.86523
upperneck 35.4712 -5.05026 4.44873
head 15.4507 -3.69029 2.07182
rclavicle -7.2867e-015 -1.72943e-014
rhumerus -36.8978 11.9501 -96.7662
rradius 30.6545
rwrist 12.7341
rhand -23.1373 -47.149
rfingers 7.12502
rthumb 3.3105 -77.1031
lclavicle -7.2867e-015 -1.72943e-014
lhumerus -36.4363 -12.7575 94.6418
lradius 32.4518
lwrist 6.8591
lhand -31.1108 -29.7354
lfingers 7.12502
lthumb -4.39011 0.19911
rfemur -32.682 7.50449 26.5895
rtibia 41.5766
rfoot -20.1185 -17.1296
rtoes -2.52282
lfemur -32.4061 -10.234 -14.4462
ltibia 43.3697
lfoot -24.9392 19.9238
ltoes 5.73181
34
root -2.56571 16.5398 42.8268 -164.873 -6.26858 -175.055
lowerback -11.3704 1.06566 4.31178
upperback -6.23906 0.193229 2.04535
thorax -0.11591 -0.310785 -0.279501
lowerneck -15.5525 -1.56809 -7.90674
upperneck 36.1098 -5.03298 4.41687
head 15.6359 -3.79742 2.0595
rclavicle -2.22515e-014 3.71727e-014
rhumerus -38.3734 11.6013 -97.023
rradius 30.9537
rwrist 12.2701
rhand -22.2987 -47.034
rfingers 7.12502
rthumb 4.12038 -76.9739
lclavicle -2.22515e-014 3.71727e-014
lhumerus -38.0636 -12.5383 94.9042
lradius 32.6943
lwrist 6.77334
lhand -31.187 -29.6078
lfingers 7.12502
lthumb -4.46372 0.325188
rfemur -32.8665 7.49718 26.5963
rtibia 41.5692
rfoot -20.0471 -17.4001
rtoes -2.72735
lfemur -32.6693 -10.3129 -14.3448
ltibia 43.3657
lfoot -24.8915 19.666
ltoes 6.12143
35
root -2.58553 16.535 42.7892 -165.549 -5.60104 -174.981
lowerback -11.3016 1.27905 4.54039
upperback -5.90125 0.496333 1.96549
thorax 0.211912 -0.134247 -0.458104
lowerneck -15.3651 -1.57752 -7.94924
upperneck 36.0218 -5.07939 4.49257
head 15.5555 -3.81556 2.09303
rclavicle -1.49089e-015 1.2921e-014
rhumerus -38.3335 11.5838 -97.0813
rradius 30.7136
rwrist 12.7618
rhand -22.4417 -46.4945
rfingers 7.12502
rthumb 3.98227 -76.4371
lclavicle -1.49089e-015 1.2921e-014
lhumerus -38.0684 -12.5358 94.8431
lradius 32.7143
lwrist 6.73932
lhand -31.0517 -29.8327
lfingers 7.12502
lthumb -4.33301 0.102957
rfemur -31.9669 7.53552 26.6468
rtibia 41.539
rfoot -20.1866 -17.0221
rtoes -3.35159
lfemur -31.5644 -10.7206 -14.5433
ltibia 43.3317
lfoot -25.5124 20.3712
ltoes 7.10564
36
root -2.59321 16.5337 42.7938 -165.385 -5.2387 -174.964
lowerback -12.5585 1.41043 4.44929
upperback -5.179 0.628387 2.00824
thorax 1.64995 -0.00716245 -0.33675
lowerneck -15.6087 -1.73381 -7.97113
upperneck 35.4979 -5.10041 4.54175
head 15.3638 -3.74636 2.12201
rclavicle -6.83322e-016 9.93923e-015
rhumerus -37.0932 11.7796 -96.7768
rradius 30.5705
rwrist 12.6624
rhand -21.9136 -46.7372
rfingers 7.12502
rthumb 4.4922 -76.6696
lclavicle -6.83322e-016 9.93923e-015
lhumerus -36.8905 -12.6886 94.7236
lradius 32.6597
lwrist 6.88047
lhand -30.962 -29.9602
lfingers 7.12502
lthumb -4.24646 -0.0228127
rfemur -32.185 7.51482 26.5571
rtibia 41.5402
rfoot -20.1951 -16.5951
rtoes -3.51749
lfemur -31.7043 -10.6729 -14.5915
ltibia 43.324
lfoot -25.276 20.8009
ltoes 6.33883
37
root -2.58514 16.5352 42.7967 -165.351 -5.882 -175.138
lowerback -11.7581 1.1539 4.2117
upperback -5.73369 0.342451 1.99351
thorax 0.62628 -0.188807 -0.261414
lowerneck -15.4395 -1.60066 -7.87013
upperneck 35.9155 -5.09196 4.50057
head 15.5201 -3.79146 2.08202
rclavicle 6.24308e-015 3.57812e-015
rhumerus -37.7853 11.5929 -96.9702
rradius 30.825
rwrist 12.0781
rhand -21.3798 -47.2083
rfingers 7.12502
rthumb 5.00766 -77.1291
lclavicle 6.24308e-015 3.57812e-015
lhumerus -37.7342 -12.6967 94.8595
lradius 32.8147
lwrist 7.01266
lhand -30.9897 -29.7315
lfingers 7.12502
lthumb -4.27315 0.2054
rfemur -32.1721 7.73738 26.4182
rtibia 41.5681
rfoot -20.2945 -17.3063
rtoes -2.96502
lfemur -31.8696 -10.572 -14.6497
ltibia 43.2926
lfoot -25.0963 20.1324
ltoes 5.97875
38
root -2.59266 16.5332 42.8012 -165.212 -5.63527 -175.098
lowerback -12.2539 1.27821 4.18221
upperback -5.49042 0.485614 2.02395
thorax 1.15282 -0.098814 -0.192848
lowerneck -15.5858 -1.69189 -7.7825
upperneck 35.7696 -5.12554 4.37036
head 15.4803 -3.78336 2.00721
rclavicle 3.85766e-015 -5.76476e-015
rhumerus -37.4629 11.8083 -96.9239
rradius 30.347
rwrist 13.5617
rhand -23.0904 -45.4284
rfingers 7.12502
rthumb 3.35577 -75.3818
lclavicle 3.85766e-015 -5.76476e-015
lhumerus -37.2628 -12.8275 94.9161
lradius 32.6995
lwrist 7.06402
lhand -30.8711 -29.5182
lfingers 7.12502
lthumb -4.15869 0.420989
rfemur -32.3914 7.71321 26.3895
rtibia 41.6101
rfoot -20.1867 -17.1518
rtoes -3.24018
lfemur -31.9895 -10.5061 -14.6534
ltibia 43.2891
lfoot -25.2913 20.2112
ltoes 6.27014
39
root -2.58639 16.536 42.8259 -164.639 -6.13717 -175.285
lowerback -12.9391 1.15571 3.86447
upperback -5.40363 0.313812 2.02169
thorax 1.60621 -0.173443 -0.0364457
lowerneck -15.7351 -1.81316 -7.64728
upperneck 35.5413 -5.19344 4.24125
head 15.4029 -3.77429 1.91994
rclavicle 2.68515e-014 -2.127e-014
rhumerus -36.9497 11.8228 -96.7988
rradius 30.4622
rwrist 13.2786
rhand -22.2294 -46.998
rfingers 7.12502
rthumb 4.18729 -76.9366
lclavicle 2.68515e-014 -2.127e-014
lhumerus -36.6849 -13.0028 94.8921
lradius 32.5543
lwrist 7.05092
lhand -30.5844 -29.5623
lfingers 7.12502
lthumb -3.88182 0.382114
rfemur -33.1577 7.65673 26.1733
rtibia 41.6635
rfoot -19.9558 -17.5771
rtoes -3.32149
lfemur -32.8301 -10.3811 -14.6515
ltibia 43.2473
lfoot -24.9333 19.7192
ltoes 5.85317
40
root -2.59704 16.5361 42.8127 -164.826 -5.58649 -175.241
lowerback -12.7061 1.35009 4.04843
upperback -5.40214 0.573662 1.90373
thorax 1.49211 -0.0460779 -0.227576
lowerneck -15.78 -1.79722 -7.53541
upperneck 35.6276 -5.21596 4.21714
head 15.4525 -3.77856 1.88402
rclavicle 1.17159e-014 -1.2921e-014
rhumerus -37.0565 11.7682 -96.9591
rradius 30.669
rwrist 12.8122
rhand -21.3995 -48.473
rfingers 7.12502
rthumb 4.98861 -78.3943
lclavicle 1.17159e-014 -1.2921e-014
lhumerus -36.8225 -13.0201 94.7989
lradius 32.5451
lwrist 7.05173
lhand -30.3523 -29.679
lfingers 7.12502
lthumb -3.65764 0.269359
rfemur -32.917 7.66874 26.1569
rtibia 41.6925
rfoot -20.0155 -17.1158
rtoes -3.47144
lfemur -32.4294 -10.4085 -14.775
ltibia 43.2265
lfoot -25.07 20.1724
ltoes 6.40595
41
root -2.602 16.5365 42.7894 -165.418 -5.94906 -175.335
lowerback -12.7123 1.1107 3.93402
upperback -4.97617 0.315452 1.9627
thorax 1.9304 -0.134229 -0.13752
lowerneck -16.0103 -1.80241 -7.54843
upperneck 35.5259 -5.14619 4.24573
head 15.4535 -3.72264 1.9118
rclavicle 1.18153e-014 9.93923e-016
rhumerus -36.7645 12.0169 -96.9144
rradius 30.3858
rwrist 13.3376
rhand -22.6216 -46.8645
rfingers 7.12502
rthumb 3.80854 -76.8103
lclavicle 1.18153e-014 9.93923e-016
lhumerus -36.5035 -12.8404 94.7223
lradius 32.5227
lwrist 7.01763
lhand -30.3044 -29.6167
lfingers 7.12502
lthumb -3.61146 0.332437
rfemur -32.0901 7.77354 26.1612
rtibia 41.6982
rfoot -20.3008 -17.5326
rtoes -2.97043
lfemur -31.6862 -10.6122 -14.9407
ltibia 43.1719
lfoot -25.1687 19.9352
ltoes 6.65016
42
root -2.59778 16.5372 42.8094 -165.126 -6.27209 -175.306
lowerback -13.1986 0.978524 3.7268
upperback -4.79271 0.13298 2.12042
thorax 2.37871 -0.211188 0.118784
lowerneck -16.1502 -1.84972 -7.61668
upperneck 35.2735 -5.09537 4.28168
head 15.3641 -3.67018 1.95213
rclavicle 1.12639e-014 -1.13307e-014
rhumerus -36.1411 12.246 -96.6873
rradius 31.2651
rwrist 10.5863
rhand -20.2584 -49.767
rfingers 7.12502
rthumb 6.09034 -79.6595
lclavicle 1.12639e-014 -1.13307e-014
lhumerus -35.9798 -12.6839 94.7237
lradius 32.4687
lwrist 7.00182
lhand -30.3194 -29.727
lfingers 7.12502
lthumb -3.62586 0.221878
rfemur -32.5043 7.7364 26.1915
rtibia 41.6945
rfoot -20.2172 -17.7223
rtoes -2.70305
lfemur -32.188 -10.3597 -14.8021
ltibia 43.1652
lfoot -25.0813 19.4621
ltoes 6.58829
